# xmcd
#
# Track frame offsets:
#	150
#	9943
#	26276
#	41534
#	57434
#	71133
#	88719
#	105930
#	118543
#	132246
#	146621
#	158281
#	178609
#	199917
#	217056
#	229540
#
# Disc length: 3204 seconds
#
# Revision: 0
# Processed by: cddbd v1.5.2PL0 Copyright (c) Steve Scherf et al.
# Submitted via: EasyCDDAExtractor 10.2.0.1
#
DISCID=cf0c8210
DTITLE=Various Artist - Gospel Jukebox Vol. 23
DYEAR=2006
DGENRE=Gospel
TTITLE0=Chuck Hancock - If It's Wrong, It Can't Be Right
TTITLE1=The Morris Brothers - Garden In The Sky
TTITLE2=Felicia ReRamus - Thank You
TTITLE3=Doug DeRamus - Almost Home
TTITLE4=Brenda Kirkland - We Gained It All
TTITLE5=Beverly Kirby - In The Palm Of His Hand
TTITLE6=Marvin Morrow - I'll Not Be Dead
TTITLE7=Gala Earlene - Please Take A Message
TTITLE8=Bryon Hildreth - The Man That I'm Not
TTITLE9=Wanda George - Just Shout
TTITLE10=Dan Duncan - I'm Taking Back My Stuff
TTITLE11=Tommy Smith - If You Could See Where I Am
TTITLE12=David Patillo - I Love Jesus
TTITLE13=Mike Manuel - Welcome To The Lost And Found
TTITLE14=LaVerne Tripp - Don't Ever Give Up
TTITLE15=Roland Wright - Camp Fire In My Soul
EXTD=
EXTT0=
EXTT1=
EXTT2=
EXTT3=
EXTT4=
EXTT5=
EXTT6=
EXTT7=
EXTT8=
EXTT9=
EXTT10=
EXTT11=
EXTT12=
EXTT13=
EXTT14=
EXTT15=
PLAYORDER=
